<?xml version="1.0" encoding="utf-8"?>
<!-- Generator: Adobe Illustrator 26.4.1, SVG Export Plug-In . SVG Version: 6.00 Build 0)  -->
<svg version="1.1" xmlns="http://www.w3.org/2000/svg" xmlns:xlink="http://www.w3.org/1999/xlink" x="0px" y="0px"
	 viewBox="0 0 300 300" style="enable-background:new 0 0 300 300;" xml:space="preserve">
<style type="text/css">
	.st0{display:none;}
	.st1{display:inline;fill:url(#SVGID_1_);}
	.st2{display:inline;fill:url(#SVGID_00000060011427407105771970000011789903060981814453_);}
	.st3{display:inline;fill:url(#SVGID_00000176005430839893849300000010412802282129665418_);}
	.st4{display:inline;fill:url(#SVGID_00000060006327445793978940000000043153649505164474_);}
	.st5{display:inline;fill:#999999;}
	.st6{display:inline;}
	.st7{clip-path:url(#SVGID_00000129165516204348038670000018233293941777901244_);}
	.st8{clip-path:url(#SVGID_00000036228314905256855520000013649713101792271533_);}
	.st9{clip-path:url(#SVGID_00000124126864589116031620000005444992292401640890_);}
	.st10{display:inline;opacity:0.38;fill:#B3B3B3;}
	.st11{display:inline;fill:#FFFFFF;}
	.st12{fill:url(#SVGID_00000040553303260737215140000005512675559069395374_);}
	.st13{fill:url(#SVGID_00000086668088883805374680000007888403966857824425_);}
	.st14{fill:#FFFFFF;}
</style>
<g id="Layer_1" class="st0">
	<linearGradient id="SVGID_1_" gradientUnits="userSpaceOnUse" x1="1720.2391" y1="934.7073" x2="2021.1799" y2="934.7073">
		<stop  offset="0" style="stop-color:#FFCD4E"/>
		<stop  offset="1" style="stop-color:#FB8403"/>
	</linearGradient>
	<path class="st1" d="M1891,926.1l130.1-130.1c-49.8-22.1-110.2-12.8-151,27.9l-110.4,110.4c-40.7,40.7-50,101.2-27.9,151l89.4-89.4
		L1891,926.1z"/>
	
		<linearGradient id="SVGID_00000057845550126586093910000016031393743907864737_" gradientUnits="userSpaceOnUse" x1="1769.5071" y1="1044.8729" x2="2013.512" y2="1272.4111">
		<stop  offset="0" style="stop-color:#FFE473"/>
		<stop  offset="1" style="stop-color:#FB8403"/>
	</linearGradient>
	<path style="display:inline;fill:url(#SVGID_00000057845550126586093910000016031393743907864737_);" d="M1842.3,1085.2l-20.9-20.9
		c-4.7-4.7-8.3-10.2-10.6-16c-7.1-17.5-3.5-38.3,10.6-52.5l-89.4,89.4c6.6,14.7,15.9,28.5,27.9,40.6l110.4,110.4
		c25.6,25.6,59.6,39.7,95.8,39.7c19.4,0,38.1-4,55.2-11.7l-89.5-89.5L1842.3,1085.2z"/>
	
		<linearGradient id="SVGID_00000040563104910587550030000007607694385759072437_" gradientUnits="userSpaceOnUse" x1="1899.4761" y1="994.1078" x2="2192.7798" y2="937.0953">
		<stop  offset="0" style="stop-color:#E9E9F5"/>
		<stop  offset="0.2734" style="stop-color:#E4E4F1"/>
		<stop  offset="0.5901" style="stop-color:#D7D6E4"/>
		<stop  offset="0.927" style="stop-color:#C2BFCF"/>
		<stop  offset="1" style="stop-color:#BCB9C9"/>
	</linearGradient>
	<path style="display:inline;fill:url(#SVGID_00000040563104910587550030000007607694385759072437_);" d="M2110.7,1064.2
		C2110.7,1064.2,2110.6,1064.2,2110.7,1064.2l89.4-89.3c-6.6-14.9-16-28.7-27.9-40.6l-87.3-87.4l-30.8,30.7l-30.8,30.7l-117.7,117.5
		l61.5,61.6l117.7-117.5l25.8,25.9c9.1,9.2,14.2,21.3,14.2,34.3c0,9.1-2.5,17.8-7.2,25.4C2115.7,1058.6,2113.4,1061.5,2110.7,1064.2
		z"/>
	
		<linearGradient id="SVGID_00000050657057704860277090000004704999577143122608_" gradientUnits="userSpaceOnUse" x1="1931.74" y1="1119.4501" x2="2211.8301" y2="1119.4501">
		<stop  offset="0" style="stop-color:#FB6403"/>
		<stop  offset="1" style="stop-color:#FFCD4E"/>
	</linearGradient>
	<path style="display:inline;fill:url(#SVGID_00000050657057704860277090000004704999577143122608_);" d="M2110.6,1064.3
		C2110.6,1064.3,2110.6,1064.3,2110.6,1064.3l-110.4,110.4c-7.5,7.5-16.9,12.2-27.2,13.7c-2.3,0.3-4.7,0.5-7.1,0.5
		c-12.9,0-25.1-5-34.3-14.2l89.5,89.5c14.9-6.7,28.6-16.1,40.5-28l110.4-110.4c25.6-25.6,39.7-59.6,39.7-95.8
		c0-19.4-4-38.1-11.7-55.2L2110.6,1064.3z"/>
	<path class="st5" d="M1663,87.1l130.1-130.1c-49.8-22.1-110.2-12.8-151,27.9L1531.8,95.2c-40.7,40.7-50,101.2-27.9,151l89.4-89.4
		L1663,87.1z"/>
	<path class="st5" d="M1614.3,246.2l-20.9-20.9c-4.7-4.7-8.3-10.2-10.6-16c-7.1-17.5-3.5-38.3,10.6-52.5l-89.4,89.4
		c6.6,14.7,15.9,28.5,27.9,40.6l110.4,110.4c25.6,25.6,59.6,39.7,95.8,39.7c19.4,0,38.1-4,55.2-11.7l-89.5-89.5L1614.3,246.2z"/>
	<polygon class="st5" points="1677.7,187 1739.2,248.5 1856.8,130.9 1795.3,69.4 	"/>
	<path class="st5" d="M1972.1,135.8c-6.7-14.9-16.1-28.6-28-40.5l-87.4-87.4L1826,38.6l-30.8,30.8l61.5,61.5l25.9,25.8
		c9.1,9.2,14.2,21.3,14.2,34.3c0,12.9-5,25.1-14.2,34.3L1972.1,135.8z"/>
	<path class="st5" d="M1882.6,225.3C1882.6,225.3,1882.6,225.3,1882.6,225.3l-110.4,110.4c-7.5,7.5-16.9,12.2-27.2,13.7
		c-2.3,0.3-4.7,0.5-7.1,0.5c-12.9,0-25.1-5-34.3-14.2l89.5,89.5c14.9-6.7,28.6-16.1,40.5-28l110.4-110.4
		c25.6-25.6,39.7-59.6,39.7-95.8c0-19.4-4-38.1-11.7-55.2L1882.6,225.3z"/>
	<path class="st5" d="M3835.6-539.2c-6.7-14.9-16.1-28.6-28-40.5l-87.4-87.4l-30.8,30.8l-30.8,30.8L3541.2-488l61.5,61.5
		l117.6-117.6l25.9,25.8c9.1,9.2,14.2,21.3,14.2,34.3c0,12.9-5,25.1-14.2,34.3c0,0,0,0,0,0l-110.4,110.4
		c-7.5,7.5-16.9,12.2-27.2,13.7c-2.3,0.3-4.7,0.5-7.1,0.5c-12.9,0-25.1-5-34.3-14.2l-89.5-89.5l-20.9-20.9
		c-4.7-4.7-8.3-10.2-10.6-16c-7.1-17.5-3.5-38.3,10.6-52.5l69.7-69.7l130.1-130.1c-49.8-22.1-110.2-12.8-151,27.9l-110.4,110.4
		c-40.7,40.7-50,101.2-27.9,151c6.6,14.7,15.9,28.5,27.9,40.6l110.4,110.4c25.6,25.6,59.6,39.7,95.8,39.7c19.4,0,38.1-4,55.2-11.7
		c14.9-6.7,28.6-16.1,40.5-28l110.4-110.4c25.6-25.6,39.7-59.6,39.7-95.8C3847.3-503.4,3843.3-522.1,3835.6-539.2z"/>
	<g class="st6">
		<g>
			<defs>
				<polygon id="SVGID_00000150095827743933092000000004269242003315497130_" points="1421.8,496 1376.1,528.6 1376.1,528.6 
					1367.3,534.8 1358.4,541.2 1331.3,560.4 1331.2,560.5 1331.4,560.3 1320.5,560.5 1345.2,521 1354,496 1339.5,496 1350.6,464.4 
					1398.7,464.4 1387.6,496 				"/>
			</defs>
			<clipPath id="SVGID_00000135679564591573680160000004860622492340665786_">
				<use xlink:href="#SVGID_00000150095827743933092000000004269242003315497130_"  style="overflow:visible;"/>
			</clipPath>
			<g style="clip-path:url(#SVGID_00000135679564591573680160000004860622492340665786_);">
			</g>
		</g>
	</g>
	<g class="st6">
		<g>
			<defs>
				<path id="SVGID_00000030480037273697399870000008289482001938701968_" d="M1407.8,407.7l-11.1,31.6h-83.2
					c-22.6,0-40.9,18.4-40.9,40.9s18.4,40.9,40.9,40.9h6.3l-11.1,31.4c-37.8-2.5-67.7-34-67.7-72.4c0-40,32.5-72.5,72.5-72.5H1407.8
					z"/>
			</defs>
			<clipPath id="SVGID_00000180348387025700007530000002787888466023642758_">
				<use xlink:href="#SVGID_00000030480037273697399870000008289482001938701968_"  style="overflow:visible;"/>
			</clipPath>
			<g style="clip-path:url(#SVGID_00000180348387025700007530000002787888466023642758_);">
			</g>
		</g>
	</g>
	<g class="st6">
		<g>
			<defs>
				<polygon id="SVGID_00000076573898541407547480000010281957600353277870_" points="1410.8,496.2 1365.1,528.7 1365.1,528.7 
					1356.2,535 1347.4,541.3 1320.3,560.6 1320.2,560.7 1320.4,560.4 1323.1,552.8 1334.2,521.2 1343,496.2 1328.5,496.2 
					1339.6,464.6 1387.7,464.6 1376.5,496.2 				"/>
			</defs>
			<clipPath id="SVGID_00000017513958033175415900000006176810386273427882_">
				<use xlink:href="#SVGID_00000076573898541407547480000010281957600353277870_"  style="overflow:visible;"/>
			</clipPath>
			<g style="clip-path:url(#SVGID_00000017513958033175415900000006176810386273427882_);">
			</g>
		</g>
	</g>
	<path class="st10" d="M2710.1,1178.8l-89.4,89.5c0,0,0.1-0.1,0.1-0.1c0.6-0.7,3.2-3.7,6.9-8.7c14.6-20,45.8-72.4,34.2-141.4
		l20.3,20.3C2694.1,1150.1,2703.5,1163.8,2710.1,1178.8z"/>
	<rect x="3535" y="-350" transform="matrix(-1.836970e-16 1 -1 -1.836970e-16 3308 -3896)" class="st11" width="134" height="112"/>
	<g class="st6">
		
			<image style="overflow:visible;" width="564" height="423" id="lxIHay_00000020391073772917926010000008837039548619630517_" xlink:href="43F06D9BA5368E0A.jpg"  transform="matrix(2.3215 0 0 2.3215 -507 -374)">
		</image>
	</g>
	<g id="Layer_2" class="st6">
	</g>
</g>
<g id="Layer_3">
	
		<linearGradient id="SVGID_00000034807582596561273570000011642042947129686198_" gradientUnits="userSpaceOnUse" x1="91.7679" y1="40.2989" x2="156.6451" y2="193.1402">
		<stop  offset="0" style="stop-color:#FB8403"/>
		<stop  offset="1" style="stop-color:#FFCD4E"/>
	</linearGradient>
	<path style="fill:url(#SVGID_00000034807582596561273570000011642042947129686198_);" d="M197.5,41.1C184.8,28.4,168,21.4,150,21.4
		c-18,0-34.8,7-47.5,19.7l-61.8,61.8C28,115.6,21,132.5,21,150.4s7,34.8,19.7,47.5l31.2,31.2L228.7,72.3L197.5,41.1z"/>
	
		<linearGradient id="SVGID_00000094591353179390972320000000097591710840007356_" gradientUnits="userSpaceOnUse" x1="98.2237" y1="147.9943" x2="265.5757" y2="202.3702">
		<stop  offset="0" style="stop-color:#FC9514"/>
		<stop  offset="1" style="stop-color:#FFCD4E"/>
	</linearGradient>
	<path style="fill:url(#SVGID_00000094591353179390972320000000097591710840007356_);" d="M259.3,102.9l-30.6-30.6L71.9,229.1
		l30.6,30.6c12.7,12.7,29.6,19.7,47.5,19.7s34.8-7,47.5-19.7l61.8-61.8C285.5,171.7,285.5,129.1,259.3,102.9z"/>
	<path class="st14" d="M239.5,114.5l-39.3-39.3l-12,12l0,0l-1.1,1.1l-10.8,10.8l0,0L138,137.3l23.9,23.9l38.2-38.2l15.4,15.4
		c6,6,6,15.8,0,21.8l-54.7,54.7c-6,6-15.8,6-21.8,0l-54.7-54.7c-2.9-2.9-4.5-6.8-4.5-10.9c0-4.1,1.6-8,4.5-10.9l30.1-30.1L90.6,84.4
		l-30.1,30.1c-9.3,9.3-14.4,21.7-14.4,34.8c0,13.1,5.1,25.5,14.4,34.8l54.7,54.7c9.6,9.6,22.2,14.4,34.8,14.4s25.2-4.8,34.8-14.4
		l54.7-54.7C258.6,164.9,258.6,133.6,239.5,114.5z"/>
	<path class="st14" d="M157.1,76.9l-9.2-11.4c-0.5-0.6-0.6-1.4-0.4-2.1l4.2-14c0.5-1.8-1.2-3.4-3-2.8L135,51.9
		c-0.7,0.3-1.5,0.2-2.1-0.3l-12.1-8.3c-1.6-1.1-3.7,0.1-3.6,2l0.7,14.6c0,0.7-0.3,1.5-0.9,1.9l-11.6,8.9c-1.5,1.1-1,3.5,0.8,4
		l14.1,3.8c0.7,0.2,1.3,0.7,1.6,1.4l4.9,13.8c0.6,1.8,3,2.1,4,0.5l8-12.3c0.4-0.6,1.1-1,1.8-1l14.6-0.4
		C157.3,80.6,158.3,78.4,157.1,76.9z"/>
</g>
</svg>
