<?xml version="1.0" encoding="utf-8"?>
<!-- Generator: Adobe Illustrator 26.4.1, SVG Export Plug-In . SVG Version: 6.00 Build 0)  -->
<svg version="1.1" xmlns="http://www.w3.org/2000/svg" xmlns:xlink="http://www.w3.org/1999/xlink" x="0px" y="0px"
	 viewBox="0 0 1000 314" style="enable-background:new 0 0 1000 314;" xml:space="preserve">
<style type="text/css">
	.st0{display:none;}
	.st1{display:inline;fill:url(#SVGID_1_);}
	.st2{display:inline;fill:url(#SVGID_00000125593351883125051450000010398097588136464054_);}
	.st3{display:inline;fill:url(#SVGID_00000170969175422807622260000004934312202865505695_);}
	.st4{display:inline;fill:url(#SVGID_00000065793548281899070980000015994835486596660397_);}
	.st5{display:inline;fill:#999999;}
	.st6{display:inline;}
	.st7{clip-path:url(#SVGID_00000136391577471617100600000015521745639393804711_);}
	.st8{clip-path:url(#SVGID_00000057854526976944767150000010469977605765156026_);}
	.st9{clip-path:url(#SVGID_00000127005532452834071210000014618038466555410085_);}
	.st10{display:inline;opacity:0.38;fill:#B3B3B3;}
	.st11{display:inline;fill:#FFFFFF;}
	.st12{fill:url(#SVGID_00000070083009998943637120000003661344480098503055_);}
	.st13{fill:url(#SVGID_00000095330411930124593620000007306011996776401813_);}
	.st14{fill:#FFFFFF;}
	.st15{fill:#666666;}
</style>
<g id="Layer_1" class="st0">
	<linearGradient id="SVGID_1_" gradientUnits="userSpaceOnUse" x1="2058.239" y1="941.7073" x2="2359.1799" y2="941.7073">
		<stop  offset="0" style="stop-color:#FFCD4E"/>
		<stop  offset="1" style="stop-color:#FB8403"/>
	</linearGradient>
	<path class="st1" d="M2229,933.1l130.1-130.1c-49.8-22.1-110.2-12.8-151,27.9l-110.4,110.4c-40.7,40.7-50,101.2-27.9,151l89.4-89.4
		L2229,933.1z"/>
	
		<linearGradient id="SVGID_00000142170049878628944780000007175640273693695402_" gradientUnits="userSpaceOnUse" x1="2107.5071" y1="1051.8729" x2="2351.512" y2="1279.4111">
		<stop  offset="0" style="stop-color:#FFE473"/>
		<stop  offset="1" style="stop-color:#FB8403"/>
	</linearGradient>
	<path style="display:inline;fill:url(#SVGID_00000142170049878628944780000007175640273693695402_);" d="M2180.3,1092.2l-20.9-20.9
		c-4.7-4.7-8.3-10.2-10.6-16c-7.1-17.5-3.5-38.3,10.6-52.5l-89.4,89.4c6.6,14.7,15.9,28.5,27.9,40.6l110.4,110.4
		c25.6,25.6,59.6,39.7,95.8,39.7c19.4,0,38.1-4,55.2-11.7l-89.5-89.5L2180.3,1092.2z"/>
	
		<linearGradient id="SVGID_00000052799649388023980470000000278059133788269954_" gradientUnits="userSpaceOnUse" x1="2237.4761" y1="1001.1078" x2="2530.7798" y2="944.0953">
		<stop  offset="0" style="stop-color:#E9E9F5"/>
		<stop  offset="0.2734" style="stop-color:#E4E4F1"/>
		<stop  offset="0.5901" style="stop-color:#D7D6E4"/>
		<stop  offset="0.927" style="stop-color:#C2BFCF"/>
		<stop  offset="1" style="stop-color:#BCB9C9"/>
	</linearGradient>
	<path style="display:inline;fill:url(#SVGID_00000052799649388023980470000000278059133788269954_);" d="M2448.7,1071.2
		C2448.7,1071.2,2448.6,1071.2,2448.7,1071.2l89.4-89.3c-6.6-14.9-16-28.7-27.9-40.6l-87.3-87.4l-30.8,30.7l-30.8,30.7l-117.7,117.5
		l61.5,61.6l117.7-117.5l25.8,25.9c9.1,9.2,14.2,21.3,14.2,34.3c0,9.1-2.5,17.8-7.2,25.4C2453.7,1065.6,2451.4,1068.5,2448.7,1071.2
		z"/>
	
		<linearGradient id="SVGID_00000180366746644979132740000015667491796614081726_" gradientUnits="userSpaceOnUse" x1="2269.74" y1="1126.4501" x2="2549.8301" y2="1126.4501">
		<stop  offset="0" style="stop-color:#FB6403"/>
		<stop  offset="1" style="stop-color:#FFCD4E"/>
	</linearGradient>
	<path style="display:inline;fill:url(#SVGID_00000180366746644979132740000015667491796614081726_);" d="M2448.6,1071.3
		C2448.6,1071.3,2448.6,1071.3,2448.6,1071.3l-110.4,110.4c-7.5,7.5-16.9,12.2-27.2,13.7c-2.3,0.3-4.7,0.5-7.1,0.5
		c-12.9,0-25.1-5-34.3-14.2l89.5,89.5c14.9-6.7,28.6-16.1,40.5-28l110.4-110.4c25.6-25.6,39.7-59.6,39.7-95.8
		c0-19.4-4-38.1-11.7-55.2L2448.6,1071.3z"/>
	<path class="st5" d="M2001,94.1l130.1-130.1c-49.8-22.1-110.2-12.8-151,27.9l-110.4,110.4c-40.7,40.7-50,101.2-27.9,151l89.4-89.4
		L2001,94.1z"/>
	<path class="st5" d="M1952.3,253.2l-20.9-20.9c-4.7-4.7-8.3-10.2-10.6-16c-7.1-17.5-3.5-38.3,10.6-52.5l-89.4,89.4
		c6.6,14.7,15.9,28.5,27.9,40.6l110.4,110.4c25.6,25.6,59.6,39.7,95.8,39.7c19.4,0,38.1-4,55.2-11.7l-89.5-89.5L1952.3,253.2z"/>
	<polygon class="st5" points="2015.7,194 2077.2,255.5 2194.8,137.9 2133.3,76.4 	"/>
	<path class="st5" d="M2310.1,142.8c-6.7-14.9-16.1-28.6-28-40.5l-87.4-87.4L2164,45.6l-30.8,30.8l61.5,61.5l25.9,25.8
		c9.1,9.2,14.2,21.3,14.2,34.3c0,12.9-5,25.1-14.2,34.3L2310.1,142.8z"/>
	<path class="st5" d="M2220.6,232.3C2220.6,232.3,2220.6,232.3,2220.6,232.3l-110.4,110.4c-7.5,7.5-16.9,12.2-27.2,13.7
		c-2.3,0.3-4.7,0.5-7.1,0.5c-12.9,0-25.1-5-34.3-14.2l89.5,89.5c14.9-6.7,28.6-16.1,40.5-28l110.4-110.4
		c25.6-25.6,39.7-59.6,39.7-95.8c0-19.4-4-38.1-11.7-55.2L2220.6,232.3z"/>
	<path class="st5" d="M4173.6-532.2c-6.7-14.9-16.1-28.6-28-40.5l-87.4-87.4l-30.8,30.8l-30.8,30.8L3879.2-481l61.5,61.5
		l117.6-117.6l25.9,25.8c9.1,9.2,14.2,21.3,14.2,34.3c0,12.9-5,25.1-14.2,34.3c0,0,0,0,0,0l-110.4,110.4
		c-7.5,7.5-16.9,12.2-27.2,13.7c-2.3,0.3-4.7,0.5-7.1,0.5c-12.9,0-25.1-5-34.3-14.2l-89.5-89.5l-20.9-20.9
		c-4.7-4.7-8.3-10.2-10.6-16c-7.1-17.5-3.5-38.3,10.6-52.5l69.7-69.7l130.1-130.1c-49.8-22.1-110.2-12.8-151,27.9l-110.4,110.4
		c-40.7,40.7-50,101.2-27.9,151c6.6,14.7,15.9,28.5,27.9,40.6l110.4,110.4c25.6,25.6,59.6,39.7,95.8,39.7c19.4,0,38.1-4,55.2-11.7
		c14.9-6.7,28.6-16.1,40.5-28l110.4-110.4c25.6-25.6,39.7-59.6,39.7-95.8C4185.3-496.4,4181.3-515.1,4173.6-532.2z"/>
	<g class="st6">
		<g>
			<defs>
				<polygon id="SVGID_00000150095827743933092000000004269242003315497130_" points="1759.8,503 1714.1,535.6 1714.1,535.6 
					1705.3,541.8 1696.4,548.2 1669.3,567.4 1669.2,567.5 1669.4,567.3 1658.5,567.5 1683.2,528 1692,503 1677.5,503 1688.6,471.4 
					1736.7,471.4 1725.6,503 				"/>
			</defs>
			<clipPath id="SVGID_00000142856506682091944590000007047486196424955308_">
				<use xlink:href="#SVGID_00000150095827743933092000000004269242003315497130_"  style="overflow:visible;"/>
			</clipPath>
			<g style="clip-path:url(#SVGID_00000142856506682091944590000007047486196424955308_);">
			</g>
		</g>
	</g>
	<g class="st6">
		<g>
			<defs>
				<path id="SVGID_00000030480037273697399870000008289482001938701968_" d="M1745.8,414.7l-11.1,31.6h-83.2
					c-22.6,0-40.9,18.4-40.9,40.9s18.4,40.9,40.9,40.9h6.3l-11.1,31.4c-37.8-2.5-67.7-34-67.7-72.4c0-40,32.5-72.5,72.5-72.5H1745.8
					z"/>
			</defs>
			<clipPath id="SVGID_00000008853033355641624410000011590842927643360912_">
				<use xlink:href="#SVGID_00000030480037273697399870000008289482001938701968_"  style="overflow:visible;"/>
			</clipPath>
			<g style="clip-path:url(#SVGID_00000008853033355641624410000011590842927643360912_);">
			</g>
		</g>
	</g>
	<g class="st6">
		<g>
			<defs>
				<polygon id="SVGID_00000076573898541407547480000010281957600353277870_" points="1748.8,503.2 1703.1,535.7 1703.1,535.7 
					1694.2,542 1685.4,548.3 1658.3,567.6 1658.2,567.7 1658.4,567.4 1661.1,559.8 1672.2,528.2 1681,503.2 1666.5,503.2 
					1677.6,471.6 1725.7,471.6 1714.5,503.2 				"/>
			</defs>
			<clipPath id="SVGID_00000126288957817046941100000004457580302015100043_">
				<use xlink:href="#SVGID_00000076573898541407547480000010281957600353277870_"  style="overflow:visible;"/>
			</clipPath>
			<g style="clip-path:url(#SVGID_00000126288957817046941100000004457580302015100043_);">
			</g>
		</g>
	</g>
	<path class="st10" d="M3048.1,1185.8l-89.4,89.5c0,0,0.1-0.1,0.1-0.1c0.6-0.7,3.2-3.7,6.9-8.7c14.6-20,45.8-72.4,34.2-141.4
		l20.3,20.3C3032.1,1157.1,3041.5,1170.8,3048.1,1185.8z"/>
	<rect x="3873" y="-343" transform="matrix(-1.836970e-16 1 -1 -1.836970e-16 3653 -4227)" class="st11" width="134" height="112"/>
	<g class="st6">
		
			<image style="overflow:visible;" width="564" height="423" id="lxIHay_00000020391073772917926010000008837039548619630517_" xlink:href="A49A0BA35431EFB5.jpg"  transform="matrix(2.3215 0 0 2.3215 -169 -367)">
		</image>
	</g>
	<g id="Layer_2" class="st6">
	</g>
</g>
<g id="Layer_3">
	<g>
		
			<linearGradient id="SVGID_00000173869527669309472320000005620840410556554373_" gradientUnits="userSpaceOnUse" x1="84.7679" y1="53.2989" x2="149.6451" y2="206.1402">
			<stop  offset="0" style="stop-color:#FB8403"/>
			<stop  offset="1" style="stop-color:#FFCD4E"/>
		</linearGradient>
		<path style="fill:url(#SVGID_00000173869527669309472320000005620840410556554373_);" d="M190.5,54.1
			C177.8,41.4,161,34.4,143,34.4c-18,0-34.8,7-47.5,19.7l-61.8,61.8C21,128.6,14,145.5,14,163.4s7,34.8,19.7,47.5l31.2,31.2
			L221.7,85.3L190.5,54.1z"/>
		
			<linearGradient id="SVGID_00000163059824632487084510000012074521241618569607_" gradientUnits="userSpaceOnUse" x1="91.2237" y1="160.9943" x2="258.5757" y2="215.3702">
			<stop  offset="0" style="stop-color:#FC9514"/>
			<stop  offset="1" style="stop-color:#FFCD4E"/>
		</linearGradient>
		<path style="fill:url(#SVGID_00000163059824632487084510000012074521241618569607_);" d="M252.3,115.9l-30.6-30.6L64.9,242.1
			l30.6,30.6c12.7,12.7,29.6,19.7,47.5,19.7s34.8-7,47.5-19.7l61.8-61.8C278.5,184.7,278.5,142.1,252.3,115.9z"/>
		<path class="st14" d="M232.5,127.5l-39.3-39.3l-12,12l0,0l-1.1,1.1l-10.8,10.8l0,0L131,150.3l23.9,23.9l38.2-38.2l15.4,15.4
			c6,6,6,15.8,0,21.8l-54.7,54.7c-6,6-15.8,6-21.8,0l-54.7-54.7c-2.9-2.9-4.5-6.8-4.5-10.9c0-4.1,1.6-8,4.5-10.9l30.1-30.1
			L83.6,97.4l-30.1,30.1c-9.3,9.3-14.4,21.7-14.4,34.8c0,13.1,5.1,25.5,14.4,34.8l54.7,54.7c9.6,9.6,22.2,14.4,34.8,14.4
			s25.2-4.8,34.8-14.4l54.7-54.7C251.6,177.9,251.6,146.6,232.5,127.5z"/>
		<g>
			<path class="st15" d="M375.1,177.7h33.8v0.3c-4.9,5.9-13.5,8.4-23.1,8.4c-12.5,0-27.7-6.6-27.7-23.9c0-17.5,19.1-23.9,31.8-23.9
				c13.2,0,28.2,4.1,37.4,12v-39.6c-6.3-3-22.1-6.1-40.7-6.1c-39.8,0-72.4,19.1-72.4,57.6c0,38.3,29,57.6,65.5,57.6
				c14.4,0,25.2-4.5,32.5-9.6l5.9,8.4H437v-62.5h-61.9V177.7z"/>
			<path class="st15" d="M515.2,102.3c-37.1,0-67.3,19.6-67.3,58.9c0,39.3,30.2,59.4,67.3,59.4c37.3,0,67.3-20.1,67.3-59.4
				C582.5,122,552.4,102.3,515.2,102.3z M515.2,185.8c-12.4,0-22.8-8.2-22.8-24.6c0-16.2,10.4-24.4,22.8-24.4
				c12.4,0,22.9,8.2,22.9,24.4C538.1,177.6,527.5,185.8,515.2,185.8z"/>
			<polygon class="st15" points="931.7,187.1 931.7,103.6 886.8,103.6 886.8,219.1 983,219.1 983,187.1 			"/>
			<path class="st15" d="M709,145.4c0-32.8-26.2-41.7-63.5-41.7h-52v32.2h44.9h7.1c12.4,0,21.1,0.7,21.1,9.6c0,8.9-8.7,9.6-21.1,9.6
				h-7.1h-44.9v64.2h44.9v-32h7.1c0.2,0,0.5,0,0.7,0l21.6,32h47.5l-26.6-39.3C701.4,173.6,709,163,709,145.4z"/>
			<polygon class="st15" points="773.8,103.6 721.2,219.1 766,219.1 798,148.7 830.2,219.1 875.1,219.1 822.4,103.6 			"/>
		</g>
		<path class="st14" d="M150.1,89.9l-9.2-11.4c-0.5-0.6-0.6-1.4-0.4-2.1l4.2-14c0.5-1.8-1.2-3.4-3-2.8L128,64.9
			c-0.7,0.3-1.5,0.2-2.1-0.3l-12.1-8.3c-1.6-1.1-3.7,0.1-3.6,2l0.7,14.6c0,0.7-0.3,1.5-0.9,1.9l-11.6,8.9c-1.5,1.1-1,3.5,0.8,4
			l14.1,3.8c0.7,0.2,1.3,0.7,1.6,1.4l4.9,13.8c0.6,1.8,3,2.1,4,0.5l8-12.3c0.4-0.6,1.1-1,1.8-1l14.6-0.4
			C150.3,93.6,151.3,91.4,150.1,89.9z"/>
		<g>
			<path class="st15" d="M361.5,34.6v14.1h-15.1v31.2h-17.6V48.7h-15.1V34.6H361.5z"/>
			<path class="st15" d="M418.8,34.6v45.3h-17.7V64.5L386,64.8v15.1h-17.6V34.6H386v17.7h15.1V34.6H418.8z"/>
			<path class="st15" d="M426.1,48.7V34.6h41.3v14.1H426.1z M443.7,65.8h23.7v14h-41.3V52.4h38.6V62h-21V65.8z"/>
		</g>
	</g>
</g>
</svg>
